<?xml version="1.0" encoding="utf-8"?>
<!-- Generator: Adobe Illustrator 22.1.0, SVG Export Plug-In . SVG Version: 6.00 Build 0)  -->
<svg version="1.1"
	 id="svg2" inkscape:version="0.91 r13725" sodipodi:docname="logo.svg" xmlns:cc="http://creativecommons.org/ns#" xmlns:dc="http://purl.org/dc/elements/1.1/" xmlns:inkscape="http://www.inkscape.org/namespaces/inkscape" xmlns:rdf="http://www.w3.org/1999/02/22-rdf-syntax-ns#" xmlns:sodipodi="http://sodipodi.sourceforge.net/DTD/sodipodi-0.dtd" xmlns:svg="http://www.w3.org/2000/svg"
	 xmlns="http://www.w3.org/2000/svg" xmlns:xlink="http://www.w3.org/1999/xlink" x="0px" y="0px" viewBox="0 0 284.5 62.6"
	 style="enable-background:new 0 0 284.5 62.6;" xml:space="preserve">
<style type="text/css">
	.st0{fill:#7CB82F;}
</style>
<g id="g10_1_" transform="matrix(1.25,0,0,-1.25,0,62.5745)" inkscape:groupmode="layer" inkscape:label="logo">
	<g id="g12_1_">
		<g>
			<g id="g14_1_">
				<g id="g20_1_" transform="translate(10.3594,39.1738)">
					<path id="path22_1_" inkscape:connector-curvature="0" class="st0" d="M0,0h-2.5v-19.6H0c5.8,0,10.8,3.3,10.8,9.8
						C10.8-3.3,5.8,0,0,0 M0.9-26.6h-11.3V7H0.9c9.7,0,18-6.3,18-16.8C18.9-20.2,10.6-26.6,0.9-26.6"/>
				</g>
				<g id="g24_1_" transform="translate(43.6133,23.0303)">
					<path id="path26_1_" inkscape:connector-curvature="0" class="st0" d="M0,0l-3.2-0.3c-2.2-0.2-3.1-1.6-3.1-3.1
						c0-1.3,1.1-2.3,2.5-2.3C-1.9-5.7,0-4.2,0-2.2L0,0z M7.3-11.1c-2.3,0.2-4,1.1-5,2.7c-1.6-1.8-4.1-2.7-6.7-2.7
						c-4.8,0-8.6,2.9-8.6,7.8c0,4.4,3.4,7.3,8.1,7.7l4.7,0.5v0.8c0,1.5-1.1,2.5-3.7,2.5c-2.7,0-5.5-0.7-7-1.6l-0.6,5.9
						c1.8,1,5,1.7,8,1.7c6.6,0,10.8-3.4,10.8-9.6v-6.8c0-2.1,1.1-3.3,2.7-3.5C10-5.8,7.3-11.1,7.3-11.1z"/>
				</g>
				<path id="path28_1_" inkscape:connector-curvature="0" class="st0" d="M55.7,36.4h7.8V12.6h-7.8V36.4z M59.5,40.3
					c-1.3,0-3.9,2.6-3.9,3.9c0,1.3,2.7,4,3.9,4c1.3,0,4-2.7,4-4C63.5,43,60.9,40.3,59.5,40.3"/>
				<g id="g30_1_" transform="translate(83.4834,30.1807)">
					<path id="path32_1_" inkscape:connector-curvature="0" class="st0" d="M0,0c-4.1,0-7.9-2.4-7.9-8.1v-9.4h-7.7V6.3h7.1l0.2-3.7
						c1.5,3,4.4,4.2,8.3,4.2L0.6,0H0z"/>
				</g>
				<g id="g34_1_" transform="translate(102.0723,14.6709)">
					<path id="path36_1_" inkscape:connector-curvature="0" class="st0" d="M0,0c-3.2-8.4-7.1-13.3-12.8-14.7l-3.2,5
						c3.7,1.2,6,3.4,8.3,8.8l-8.9,22.6H-9l3.5-9.3c0.5-1.4,1-2.9,1.5-4.6h0.1C-3.5,9.5-3,11-2.5,12.4l3.6,9.4h7.3L0,0z"/>
				</g>
				<g id="g38_1_" transform="translate(131.6191,11.8311)">
					<path id="path40_1_" inkscape:connector-curvature="0" class="st0" d="M0,0c-9.3,0-18.6,6.1-18.6,17.6
						c0,11.6,9.6,17.6,18.4,17.6c4.7,0,8.4-1.2,10.7-2.7l-0.6-7.2c-2.3,1.7-5.5,2.8-9.2,2.8c-6.1,0-11.1-4.1-11.1-10.7
						c0-6.3,4.8-10.4,10.9-10.4c1.9,0,3.4,0.3,4.6,1v4.7h-6.1v6.3h13.6V3.5C9.6,1.2,5.4,0,0,0"/>
				</g>
				<g id="g42_1_" transform="translate(159.5791,30.6543)">
					<path id="path44_1_" inkscape:connector-curvature="0" class="st0" d="M0,0c-3,0-5.5-2.6-5.5-6.2c0-3.5,2.5-6,5.5-6
						c2.9,0,5.5,2.5,5.5,6C5.5-2.6,2.9,0,0,0 M0-18.8c-7.2,0-13,5.2-13,12.6C-13,1.3-7.2,6.5,0,6.5c7.2,0,12.9-5.2,12.9-12.7
						C12.9-13.6,7.2-18.8,0-18.8"/>
				</g>
				<g id="g46_1_" transform="translate(187.6553,30.6543)">
					<path id="path48_1_" inkscape:connector-curvature="0" class="st0" d="M0,0c-3,0-5.5-2.6-5.5-6.2c0-3.5,2.5-6,5.5-6
						c2.9,0,5.5,2.5,5.5,6C5.5-2.6,2.9,0,0,0 M0-18.8c-7.2,0-13,5.2-13,12.6C-13,1.3-7.2,6.5,0,6.5c7.2,0,12.9-5.2,12.9-12.7
						C12.9-13.6,7.1-18.8,0-18.8"/>
				</g>
				<g id="g50_1_" transform="translate(220.1396,29.0781)">
					<path id="path52_1_" inkscape:connector-curvature="0" class="st0" d="M0,0c-0.9,0.8-2.4,1.5-4.3,1.5c-3.1,0-5.6-2.5-5.6-5.9
						c0-3.5,2.5-5.9,5.6-5.9c1.8,0,3.3,0.6,4.3,1.6V0z M1.4-16.5l-0.2,1.7c-1.2-1.6-3.7-2.4-6.6-2.4c-5.7,0-12,4.5-12,12.3
						c0,7.8,5.6,12.9,12.8,12.9c2,0,3.5-0.4,4.5-1V21h7.5v-37.4C7.5-16.5,1.4-16.5,1.4-16.5z"/>
				</g>
			</g>
		</g>
	</g>
</g>
</svg>
